<svg width="140" height="120" xmlns="http://www.w3.org/2000/svg" xmlns:svg="http://www.w3.org/2000/svg">
 <!-- Created with SVG-edit - https://github.com/SVG-Edit/svgedit-->
 <g class="layer">
  <title>Layer 1</title>
  <rect fill="#660611" height="20" id="svg_1" stroke="#660611" transform="matrix(1 0 0 1 0 0)" width="20" x="50" y="50"/>
  <rect fill="#660611" height="20" id="svg_2" stroke="#660611" stroke-dasharray="null" stroke-linecap="null" stroke-linejoin="null" width="30" x="20" y="100"/>
  <rect fill="#660611" fill-opacity="null" height="120" id="svg_3" stroke="#660611" stroke-dasharray="null" stroke-linecap="null" stroke-linejoin="null" transform="matrix(1 0 0 1 0 0)" width="20" x="0" y="0"/>
  <rect fill="#660611" height="20" id="svg_4" stroke="#660611" stroke-dasharray="null" stroke-linecap="null" stroke-linejoin="null" transform="matrix(1 0 0 1 0 0)" width="30" x="20" y="0"/>
  <rect fill="#660611" height="120" id="svg_5" stroke="#660611" stroke-dasharray="null" stroke-linecap="null" stroke-linejoin="null" width="20" x="80" y="0"/>
  <rect fill="#660611" height="120" id="svg_6" stroke="#660611" stroke-dasharray="null" stroke-linecap="null" stroke-linejoin="null" transform="matrix(1 0 0 1 0 0)" width="20" x="120" y="0"/>
  <rect fill="#660611" height="20" id="svg_7" stroke="#660611" width="20" x="100" y="50"/>
  <rect fill="#660611" height="20" id="svg_8" stroke="#660611" transform="matrix(1 0 0 1 0 0)" width="20" x="20" y="50"/>
 </g>
</svg>