<?xml version="1.0" standalone="no"?><!DOCTYPE svg PUBLIC "-//W3C//DTD SVG 1.1//EN" "http://www.w3.org/Graphics/SVG/1.1/DTD/svg11.dtd"><svg t="1656587673539" class="icon" viewBox="0 0 1025 1024" version="1.1" xmlns="http://www.w3.org/2000/svg" p-id="4332" xmlns:xlink="http://www.w3.org/1999/xlink" width="256.25" height="256"><defs><style type="text/css">@font-face { font-family: 宋体; src: local("Microsoft YaHei"); }
@font-face { font-family: 新宋体; src: local("Microsoft YaHei"); }
@font-face { font-family: 黑体; src: local("Microsoft YaHei"); }
@font-face { font-family: 仿宋; src: local("Microsoft YaHei"); }
@font-face { font-family: 微软雅黑; src: local("Microsoft YaHei"); }
@font-face { font-family: 微軟正黑體; src: local("Microsoft YaHei"); }
@font-face { font-family: SimSun; src: local("Microsoft YaHei"); }
@font-face { font-family: NSimSun; src: local("Microsoft YaHei"); }
@font-face { font-family: SimHei; src: local("Microsoft YaHei"); }
@font-face { font-family: "Heiti SC"; src: local("Microsoft YaHei"); }
@font-face { font-family: "HanHei SC"; src: local("Microsoft YaHei"); }
@font-face { font-family: MingLiU; src: local("Microsoft YaHei"); }
@font-face { font-family: MingLiU-ExtB; src: local("Microsoft YaHei"); }
@font-face { font-family: PMingLiU; src: local("Microsoft YaHei"); }
@font-face { font-family: PMingLiU-ExtB; src: local("Microsoft YaHei"); }
@font-face { font-family: Roboto; src: local("Microsoft YaHei"); }
@font-face { font-family: RobotoDraft; src: local("Microsoft YaHei"); }
@font-face { font-family: "Noto Sans"; src: local("Microsoft YaHei"); }
@font-face { font-family: Helvetica; src: local("Microsoft YaHei"); }
@font-face { font-family: "Helvetica Neue"; src: local("Microsoft YaHei"); }
@font-face { font-family: "Lucida Grande"; src: local("Microsoft YaHei"); }
@font-face { font-family: Arial; src: local("Microsoft YaHei"); }
@font-face { font-family: Verdana; src: local("Microsoft YaHei"); }
@font-face { font-family: Ubuntu; src: local("Microsoft YaHei"); }
@font-face { font-family: "Segoe UI"; src: local("Microsoft YaHei"); }
@font-face { font-family: "Open Sans"; src: local("Microsoft YaHei"); }
:not(i):not(.fa):not([class*="icon"]):not([class*="logo"]):not([class*="code"]) { font-family: "Microsoft YaHei", system-ui, -apple-system, BlinkMacSystemFont, Helvetica, sans-serif, iconfont, icomoon, FontAwesome, "Material Icons Extended", "Apple Color Emoji", "Segoe UI Emoji", "Segoe UI Symbol", "Noto Color Emoji", emoji; text-shadow: rgba(252, 246, 236, 0.85) 0px 0px 1.15px, rgb(123, 123, 123) 0px 0px 1px, rgba(101, 98, 94, 0.34) 0px 0px 0.75px; font-feature-settings: "liga" 0; font-variant: no-common-ligatures proportional-nums; font-optical-sizing: auto; font-kerning: auto; -webkit-font-smoothing: antialiased !important; text-rendering: optimizelegibility !important; }
</style></defs><path d="M919.363847 0 104.74909 0C46.925334 0 0 46.812397 0 104.692622L0 919.307378c0 57.880225 46.925334 104.692622 104.74909 104.692622l814.614757 0c57.823756 0 104.74909-46.755928 104.74909-104.692622L1024.112937 104.692622C1024.112937 46.812397 977.244072 0 919.363847 0zM589.926547 172.906584l49.861696 0 0 157.264806c0 30.210654 0.959965 29.307158 1.976398 33.090548 1.072902 4.009264 4.686887 13.439506 16.375869 13.439506 12.423073 0 15.867652-9.938458 16.827617-14.173597 0.790559-3.670453 1.694055-2.936363 1.694055-34.445792L676.662182 172.906584l49.805228 0 0 236.038381-50.48285 0 0.621154-11.914856L661.246278 390.649167c-3.896327 7.905592-8.413808 13.552443-13.947723 17.505239-5.590383 3.896327-11.858388 5.872725-19.312231 5.872725-8.583214 0-15.585309-1.863461-20.89335-5.533914-5.195103-3.557516-8.809088-7.96206-11.180765-13.552443-2.597552-6.211536-4.235138-12.931289-4.856292-19.538105-0.734091-7.623249-1.12937-23.377964-1.12937-46.868865L589.926547 172.906584C589.926547 172.906584 589.926547 172.906584 589.926547 172.906584zM416.681151 271.048858c0-24.620271 2.089335-43.65016 6.042131-57.146134 3.726922-12.479541 10.333738-22.305062 20.215727-29.871843C452.990405 176.181758 466.260505 172.285431 482.4105 172.285431c13.778317 0 25.580236 2.710489 35.236352 7.792655 9.373773 4.969229 16.601743 11.463108 21.514503 19.086357C544.187052 207.182971 547.6881 215.370905 549.551561 223.615308c1.919929 8.583214 2.879894 22.474468 2.879894 41.222014l0 41.560825c0 24.394397-0.959965 42.181979-2.710489 53.13687C548.026911 369.586412 544.299989 379.186059 538.709606 387.995147 533.119224 396.63483 526.173597 403.07224 517.30804 407.25091 508.160141 411.598985 497.374655 413.857726 485.290394 413.857726c-13.778317 0-25.467299-1.919929-34.841072-5.872725C441.753171 404.483953 435.089886 399.401787 430.459468 392.569097 425.716113 385.454064 422.215066 376.701445 420.125731 366.537113 417.86699 355.582221 416.73762 338.528731 416.73762 315.77192 416.73762 315.77192 416.681151 271.048858 416.681151 271.048858zM300.073674 88.82497l40.544392 130.498732c7.058564-34.106981 20.723944-81.314658 31.565898-130.498732l36.761001 0L361.624352 275.001654 361.285541 276.469836 361.285541 408.832028 318.200066 408.832028 318.200066 276.469836 317.861255 275.058123 263.312672 88.82497C263.312672 88.82497 300.073674 88.82497 300.073674 88.82497zM887.007389 818.793427c-6.43741 58.727253-58.557847 106.838425-117.002757 110.791221-172.116025 7.397375-343.723834 7.397375-515.78339 0-58.501379-3.952796-110.565347-52.063968-117.059226-110.791221-6.380942-92.947171-6.380942-184.256755 0-277.090989 6.43741-58.727253 58.557847-106.725488 117.059226-110.847689 172.059557-7.340907 343.667365-7.340907 515.78339 0 58.501379 4.122201 110.565347 52.120437 117.002757 110.847689C893.4448 634.536671 893.4448 725.846256 887.007389 818.793427zM484.556303 385.62347c7.22797 0 12.874821-4.348075 15.415904-11.858388C501.158046 370.320503 502.569758 363.770156 502.569758 345.926106L502.569758 243.66163c0-20.667475-1.185839-27.33076-2.428146-31.11415C497.600529 204.867762 492.010147 200.40675 484.725709 200.40675c-7.171501 0-12.818352 4.291607-15.472372 11.914856C467.898092 215.992059 466.542848 222.824749 466.542848 243.66163l0 99.44105c0 19.538105 1.411713 26.257858 2.65402 30.041248C471.794419 381.04952 477.384802 385.62347 484.556303 385.62347zM204.246609 559.546487l40.657329 0L252.978935 559.546487l0 8.300871 0 265.627881 51.047535 0 0-265.627881L304.02647 559.546487l8.018529 0 40.826734 0 0-51.951031L204.246609 507.595456 204.246609 559.546487zM445.649498 739.963384c0 29.420095-0.847028 36.704533-1.52465 39.810301-1.750524 7.623249-7.849123 12.253667-16.432337 12.253667-8.187934 0-14.117128-4.404544-16.037057-11.688982-0.847028-3.105768-1.750524-10.390206-1.750524-38.398588l0-155.683688L361.567884 586.256094l0 169.631411c0 22.361531 0.338811 37.269218 1.016433 44.610125 0.677622 6.719753 2.428146 13.383037 5.138635 19.651042 2.428146 5.646851 6.098599 9.994927 11.237234 13.326569 4.969229 3.444579 11.576045 5.082166 19.538105 5.082166 6.83269 0 12.761884-1.750524 17.956987-5.30804 5.364509-3.613985 10.051395-9.373773 13.891254-16.997022l15.302967 3.726922L444.971876 833.757582l49.014669 0 0-247.501489L445.705967 586.256094 445.649498 739.963384zM659.439285 598.792103c-2.65402-5.251572-6.493879-9.147899-11.576045-12.14073-5.251572-2.992831-11.688982-4.404544-19.086357-4.404544-6.211536 0-11.801919 1.52465-17.166428 4.856292-5.477446 3.501048-10.61608 8.639682-15.246498 15.867652L581.625676 625.727584l0-27.443697L581.625676 507.651925 533.288629 507.651925l0 325.879784 45.626558 0 2.823426-14.512408 3.952796-20.215727 10.729017 17.392302c4.743355 7.792655 9.994927 13.495974 15.528841 17.279365 5.251572 3.501048 10.729017 5.30804 16.71468 5.30804 8.470277 0 15.585309-2.992831 21.796846-8.809088 6.493879-6.324473 10.503143-13.383037 12.253667-21.966251 1.919929-9.48671 2.879894-24.507334 2.879894-23.490901l0-129.369361c0 0.564685 1.919929-12.874821-0.959965-39.584427C664.126172 609.972869 662.375648 604.495423 659.439285 598.792103zM617.370244 742.39153c0 23.15209-1.185839 30.210654-2.145803 33.881107-2.25874 7.96206-7.96206 12.592478-15.641778 12.592478-7.453844 0-13.157163-4.404544-15.528841-12.14073-1.12937-3.501048-2.371678-10.390206-2.371678-31.565898l0-65.559943c0-22.02272 1.12937-28.629536 2.145803-31.791772 2.202272-7.284438 7.96206-11.688982 15.359435-11.688982 7.623249 0 13.383037 4.630418 15.811183 12.479541 1.072902 3.444579 2.484615 10.333738 2.484615 31.11415l0 62.736517L617.370244 742.39153 617.370244 742.39153zM749.450094 717.206573l8.074997 0 75.385464 0 0-26.879012c0-24.337929-2.25874-52.233374-6.719753-65.2776-4.235138-12.592478-11.406639-22.305062-21.966251-29.815374-10.220801-7.22797-23.660307-11.01136-39.86677-11.01136-13.157163 0-24.902614 3.0493-34.897541 9.204367s-16.940554 14.79475-21.345098 26.483732c-4.630418 12.14073-7.058564 29.420095-7.058564 60.082497l0 75.950149c0 9.769053 1.12937 24.224992 3.162237 33.711702 2.032866 9.147899 5.70332 17.618176 10.898423 25.241425 4.912761 7.171501 12.084262 12.987758 21.119224 17.222896 9.260836 4.291607 20.215727 6.493879 32.525863 6.493879 12.592478 0 23.095621-2.202272 31.11415-6.380942 8.018529-4.235138 14.681813-10.729017 19.989853-19.312231 5.533914-8.922025 9.09143-17.44877 10.559612-25.128488 1.581118-8.074997 2.371678-20.046322 2.371678-35.631631l0-11.576045-44.948936 0 0 26.653138c0 14.117128-0.959965 23.321496-2.936363 28.85541-2.766957 7.510312-9.147899 11.914856-17.44877 11.914856-7.284438 0-12.931289-3.613985-15.472372-10.107864-1.242307-3.0493-2.65402-8.526745-2.65402-25.523768L749.337157 725.055696l0-7.792655 0.112937 0L749.450094 717.206573zM749.450094 682.478438l0-27.951914c0-20.554538 1.072902-17.44877 1.976398-20.215727 2.145803-6.606816 7.96206-10.503143 16.037057-10.503143 7.22797 0 12.761884 4.235138 14.964156 11.463108 0.903496 2.936363 2.032866 0.112937 2.032866 19.255763l0 27.951914 0 7.849123-8.074997 0-18.804015 0-8.074997 0C749.506562 690.327561 749.450094 682.478438 749.450094 682.478438z" p-id="4333"></path></svg>